<?xml version="1.0" encoding="UTF-8" standalone="no"?>
<!-- Created with Inkscape (http://www.inkscape.org/) -->

<svg
   version="1.1"
   id="svg53628"
   xml:space="preserve"
   width="800"
   height="800"
   viewBox="0 0 800 800"
   sodipodi:docname="spider-web-vector-publicdomainvectors.org.svg"
   inkscape:version="1.1.2 (b8e25be833, 2022-02-05)"
   xmlns:inkscape="http://www.inkscape.org/namespaces/inkscape"
   xmlns:sodipodi="http://sodipodi.sourceforge.net/DTD/sodipodi-0.dtd"
   xmlns="http://www.w3.org/2000/svg"
   xmlns:svg="http://www.w3.org/2000/svg"><defs
     id="defs53632"><clipPath
       clipPathUnits="userSpaceOnUse"
       id="clipPath53642"><path
         d="M 0,600 H 600 V 0 H 0 Z"
         id="path53640" /></clipPath></defs><sodipodi:namedview
     id="namedview53630"
     pagecolor="#ffffff"
     bordercolor="#666666"
     borderopacity="1.0"
     inkscape:pageshadow="2"
     inkscape:pageopacity="0.0"
     inkscape:pagecheckerboard="0"
     showgrid="false"
     inkscape:zoom="1.03875"
     inkscape:cx="400"
     inkscape:cy="400"
     inkscape:window-width="1920"
     inkscape:window-height="1018"
     inkscape:window-x="-8"
     inkscape:window-y="-8"
     inkscape:window-maximized="1"
     inkscape:current-layer="g53634" /><g
     id="g53634"
     inkscape:groupmode="layer"
     inkscape:label="spider-web-vector-publicdomainvectors.org"
     transform="matrix(1.3333333,0,0,-1.3333333,0,800)"><g
       id="g53636"><g
         id="g53638"
         clip-path="url(#clipPath53642)"><path
           d="M 0.271,0.018 H 600.068 V 599.815 H 0.271 Z"
           style="fill:#333333;fill-opacity:1;fill-rule:evenodd;stroke:none"
           id="path53644" /><path
           d="m 305.358,554.678 c -57.591,-94.673 -35.833,-165.486 -7.98,-235.135 5.401,47.006 25,151.882 132.901,199.427 -94.449,-55.314 -111.842,-127.437 -122.523,-200.4 28.306,38.115 97.669,118.744 214.62,105.998 -109.452,-0.679 -160.578,-54.443 -206.309,-112.29 43.571,18.857 143.956,54.001 238.865,-15.512 -95.131,54.139 -166.29,33.139 -234.821,5.906 47.159,-5.453 151.675,-25.205 199.112,-132.865 -55.314,94.448 -127.436,111.843 -200.4,122.522 38.116,-28.305 118.744,-97.67 105.999,-214.617 -0.678,109.453 -54.443,160.575 -112.292,206.309 18.856,-43.568 54.006,-143.953 -15.511,-238.867 54.209,95.256 33.085,166.475 5.799,235.087 C 297.022,233.772 276.061,122.244 168.295,81.882 265.628,135.139 282.112,207.457 292.813,281.798 264.697,244.586 190.7,158.061 76.945,177.031 187.865,174.487 238.3,228.872 284.737,287.9 241.785,269.735 134.439,231.801 45.408,305.106 140.198,247.442 211.069,269.326 280.801,297.229 234.52,302.972 122.585,323.788 82.134,431.791 135.392,334.459 207.709,317.975 282.049,307.272 244.84,335.388 158.313,409.385 177.283,523.141 174.739,412.22 229.125,361.786 288.155,315.349 269.99,358.294 232.048,465.642 305.358,554.678"
           style="fill:#ffffff;fill-opacity:1;fill-rule:evenodd;stroke:none"
           id="path53646" /><path
           d="m 316.695,319.589 -0.454,0.332 0.003,0.005 c -3.028,2.204 -7.776,5.668 -11.237,15.28 -3.044,-1.708 -6.283,-2.297 -9.634,-1.908 -3.767,0.437 -7.637,2.126 -11.492,4.856 -2.92,-3.602 -5.891,-6.595 -8.767,-8.835 -2.987,-2.325 -5.907,-3.862 -8.611,-4.463 -1.58,-2.969 -2.503,-6.168 -2.972,-9.423 -0.52,-3.612 -0.481,-7.288 -0.152,-10.807 0.286,-3.03 0.85,-5.977 1.671,-8.814 0.829,-2.871 1.934,-5.644 3.285,-8.292 1.419,-2.783 3.093,-5.391 4.993,-7.792 1.915,-2.424 4.083,-4.67 6.47,-6.711 2.379,-2.031 4.959,-3.838 7.711,-5.395 2.495,-1.409 5.159,-2.627 7.97,-3.627 3.715,1.701 7.465,1.958 11.213,1.268 3.352,-0.616 6.668,-1.985 9.941,-3.731 2.388,2.784 5.594,4.646 9.459,5.718 4.176,1.158 9.116,1.389 14.611,0.864 1.231,4.863 3.873,9.108 7.736,12.699 4.018,3.737 9.359,6.757 15.799,9.021 -0.802,4.341 -1.281,9.273 -0.417,15.004 0.908,6.021 3.298,12.884 8.35,20.798 -5.37,3.343 -9.293,8.469 -11.809,15.11 -2.583,6.818 -3.671,15.244 -3.312,24.976 -6.052,-0.766 -12.481,0.777 -19.046,5.051 -6.375,4.152 -12.892,10.911 -19.321,20.675 -8.577,-3.966 -17.346,-6.002 -25.616,-6.209 -8.473,-0.211 -16.437,1.499 -23.157,5.023 -7.472,-7.833 -14.723,-14.425 -21.611,-19.038 -6.574,-4.402 -12.854,-7.02 -18.729,-7.239 0.9,-12.627 -1.812,-21.964 -6.196,-29.347 -4.297,-7.235 -10.144,-12.499 -15.751,-17.143 3.951,-8.05 6.364,-16.053 7.311,-23.904 0.975,-8.081 0.398,-16.011 -1.651,-23.669 11.146,-9.371 23.1,-19.594 26.97,-38.188 7.686,-1.278 15.244,-3.431 22.329,-6.877 7.176,-3.49 13.849,-8.298 19.662,-14.859 7.755,2.674 15.781,4.856 23.904,5.132 8.165,0.281 16.361,-1.369 24.366,-6.365 6.773,8.229 14.53,13.365 22.801,16.381 8.068,2.948 16.59,3.855 25.147,3.657 0.845,10.281 4.634,18.77 10.753,25.671 6.61,7.454 15.906,13.006 27.113,16.932 -3.332,11.486 -4.047,22.664 -1.926,33.363 2.041,10.283 6.695,20.096 14.149,29.281 -7.51,4.846 -12.6,13.547 -16.23,24.669 -3.711,11.368 -5.921,25.299 -7.675,40.201 -10.429,0.185 -21.343,3.557 -32.136,11.17 -9.728,6.863 -19.364,17.18 -28.451,31.727 -11.505,-5.024 -23.799,-7.099 -36.412,-6.574 -13.323,0.554 -26.985,4.008 -40.436,9.945 -12.864,-14.081 -25.412,-22.889 -37.268,-28.381 -11.587,-5.365 -22.487,-7.554 -32.374,-8.398 -3.148,-17.31 -8.434,-30.871 -15.075,-41.305 -7.491,-11.768 -16.702,-19.554 -26.525,-24.252 4.098,-18.484 6.249,-34.922 5.92,-48.338 -0.301,-12.27 -2.687,-22.088 -7.556,-28.745 9.182,-10.402 18.233,-20.843 25.161,-31.869 7.014,-11.164 11.839,-22.899 12.424,-35.746 12.08,-2.73 24.574,-5.8 36.055,-11.508 11.615,-5.772 22.131,-14.202 30.028,-27.599 11.978,5.817 24.452,7.307 37.1,5.997 12.677,-1.316 25.516,-5.454 38.192,-10.856 9.111,9.791 19.93,17.494 32.538,22.426 11.697,4.574 24.923,6.761 39.735,6.021 2.029,13.35 7.909,25.001 17.329,34.819 9.612,10.023 22.91,18.108 39.554,24.117 -0.549,12.186 -0.995,25.115 1.811,39.192 2.838,14.236 8.984,29.577 21.667,46.372 -6.933,5.563 -13.087,16.052 -17.562,32.218 -4.132,14.934 -6.876,34.826 -7.515,60.294 -14.13,3.775 -27.568,11.443 -40.124,22.438 -13.049,11.426 -25.151,26.453 -36.088,44.438 -17.396,-4.452 -35.848,-5.837 -54.612,-3.116 -17.143,2.486 -34.544,8.401 -51.632,18.534 -14.067,-12.483 -29.659,-22.404 -46.554,-29.067 -16.042,-6.327 -33.255,-9.707 -51.447,-9.545 -10.603,-24.131 -21.842,-43.743 -33.597,-57.59 -10.858,-12.79 -22.206,-20.722 -33.96,-22.845 4.375,-23.758 6.564,-44.995 4.269,-62.727 -2.309,-17.84 -9.128,-32.125 -22.737,-41.852 12.35,-17.567 23.249,-34.673 30.332,-51.175 7.143,-16.65 10.397,-32.682 7.358,-47.945 l 5.629,-2.677 c 35.261,-16.757 69.98,-33.259 80.027,-62.95 18.103,3.365 35.895,3.624 53.031,1.118 17.835,-2.608 34.965,-8.219 50.998,-16.444 12.78,12.347 27.476,20.747 43.55,25.783 17.187,5.382 35.944,6.907 55.611,5.293 5.713,17.731 15.396,32.195 28.252,43.706 13.665,12.234 30.889,21.111 50.705,27.002 -4.581,36.332 3.561,75.564 45.143,103.252 C 511.89,276.154 498.102,241.227 503.916,198.89 l 0.228,-1.659 -1.616,-0.464 C 482.573,191.035 465.3,182.289 451.734,170.144 439.035,158.774 429.557,144.401 424.133,126.7 l -0.46,-1.506 -1.557,0.14 c -19.731,1.781 -38.521,0.36 -55.672,-5.01 -15.923,-4.985 -30.437,-13.389 -42.981,-25.812 l -1.008,-0.998 -1.253,0.655 c -15.992,8.369 -33.137,14.065 -51.017,16.679 -17.243,2.522 -35.171,2.174 -53.42,-1.41 l -1.721,-0.336 -0.508,1.679 c -8.798,29.111 -43.376,45.54 -78.502,62.236 -1.64,0.778 -3.178,1.508 -7.019,3.345 l -1.394,0.669 0.34,1.5 c 3.37,14.828 0.252,30.597 -6.825,47.092 -7.16,16.684 -18.38,34.117 -31.063,52.061 l -1.15,1.627 1.665,1.101 c 13.657,9.042 20.426,22.815 22.681,40.241 2.297,17.749 -0.053,39.295 -4.605,63.501 l -0.382,2.03 2.05,0.252 c 11.455,1.408 22.663,9.032 33.506,21.806 11.701,13.782 22.918,33.484 33.522,57.81 l 0.516,1.183 1.289,-0.024 c 18.135,-0.326 35.29,2.971 51.265,9.271 16.866,6.652 32.424,16.66 46.435,29.29 l 1.064,0.959 1.233,-0.746 c 17.002,-10.295 34.338,-16.267 51.409,-18.742 18.735,-2.717 37.158,-1.222 54.481,3.39 l 1.4,0.373 0.753,-1.252 c 10.93,-18.195 23.028,-33.34 36.066,-44.757 12.518,-10.961 25.899,-18.482 39.938,-21.959 l 1.438,-0.356 0.033,-1.487 c 0.564,-25.823 3.284,-45.873 7.417,-60.811 4.557,-16.475 10.775,-26.585 17.652,-31.265 l 1.698,-1.157 -1.259,-1.625 c -13.069,-16.858 -19.297,-32.172 -22.123,-46.331 -2.832,-14.211 -2.249,-27.338 -1.687,-39.694 l 0.067,-1.434 -1.361,-0.476 c -16.698,-5.852 -29.948,-13.777 -39.4,-23.631 -9.246,-9.638 -14.865,-21.156 -16.516,-34.408 l -0.227,-1.815 -1.821,0.117 c -14.956,0.98 -28.226,-1.104 -39.88,-5.662 -12.471,-4.876 -23.115,-12.592 -32.017,-22.427 l -0.93,-1.026 -1.269,0.548 c -12.755,5.523 -25.655,9.781 -38.317,11.094 -12.528,1.3 -24.844,-0.289 -36.578,-6.408 l -1.669,-0.87 -0.916,1.643 c -7.551,13.544 -17.852,21.934 -29.285,27.618 -11.563,5.747 -24.353,8.771 -36.648,11.532 l -1.48,0.334 -0.028,1.524 c -0.24,12.627 -4.936,24.214 -11.884,35.274 -7.045,11.212 -16.418,21.904 -25.849,32.576 l -1.105,1.249 1.067,1.276 c 4.972,5.938 7.391,15.435 7.69,27.664 0.331,13.451 -1.916,30.109 -6.169,48.925 l -0.35,1.546 1.449,0.646 c 9.713,4.324 18.871,11.818 26.281,23.461 6.561,10.305 11.758,23.868 14.779,41.366 l 0.259,1.497 1.515,0.111 c 9.885,0.718 20.858,2.762 32.534,8.169 11.707,5.421 24.148,14.237 36.958,28.503 l 0.948,1.054 1.289,-0.584 c 13.433,-6.094 27.06,-9.638 40.284,-10.189 12.581,-0.524 24.82,1.659 36.202,6.93 l 1.563,0.724 0.902,-1.474 c 9.057,-14.836 18.637,-25.232 28.272,-32.03 10.687,-7.538 21.438,-10.642 31.604,-10.474 l 1.756,0.028 0.201,-1.741 c 1.762,-15.331 3.953,-29.66 7.706,-41.155 3.653,-11.189 8.765,-19.656 16.392,-23.639 l 2.162,-1.128 -1.584,-1.844 c -7.874,-9.167 -12.723,-18.986 -14.767,-29.281 -2.104,-10.617 -1.238,-21.773 2.367,-33.276 l 0.571,-1.821 -1.814,-0.597 c -11.391,-3.75 -20.755,-9.129 -27.222,-16.422 -5.912,-6.668 -9.437,-14.986 -9.905,-25.184 l -0.09,-1.929 -1.919,0.081 c -8.732,0.36 -17.428,-0.401 -25.561,-3.368 -8.067,-2.945 -15.622,-8.091 -22.17,-16.513 l -1.112,-1.431 -1.503,1.019 c -7.714,5.24 -15.658,6.951 -23.579,6.682 -8.042,-0.274 -16.141,-2.592 -23.984,-5.358 l -1.257,-0.444 -0.865,1.019 c -5.641,6.641 -12.194,11.448 -19.266,14.887 -7.112,3.461 -14.77,5.55 -22.57,6.742 l -1.365,0.209 -0.25,1.362 c -3.351,18.313 -15.293,28.35 -26.299,37.602 l -0.571,0.482 -0.963,0.807 0.349,1.209 c 2.172,7.516 2.819,15.344 1.852,23.353 -0.949,7.867 -3.456,15.907 -7.601,23.992 l -0.71,1.386 1.204,0.987 c 5.693,4.669 11.781,9.9 16.062,17.108 4.252,7.159 6.786,16.377 5.496,29.154 l -0.231,2.285 2.293,-0.162 c 5.586,-0.395 11.833,2.054 18.551,6.553 6.932,4.643 14.319,11.444 21.975,19.563 l 1.048,1.111 1.324,-0.762 c 6.37,-3.665 14.138,-5.454 22.483,-5.246 8.226,0.207 17.002,2.353 25.557,6.554 l 1.549,0.76 0.931,-1.458 c 6.415,-10.048 12.859,-16.88 19.099,-20.942 6.522,-4.247 12.8,-5.424 18.551,-4.072 l 2.528,0.595 -0.154,-2.596 c -0.617,-10.232 0.348,-18.966 2.949,-25.835 2.453,-6.477 6.38,-11.283 11.826,-14.093 l 1.938,-1.001 -1.218,-1.805 c -5.479,-8.114 -7.977,-15.003 -8.875,-20.948 -0.892,-5.918 -0.204,-10.951 0.704,-15.327 l 0.353,-1.703 -1.656,-0.535 c -6.632,-2.138 -12.047,-5.062 -15.982,-8.72 -3.705,-3.449 -6.094,-7.567 -6.934,-12.315 l -0.322,-1.813 -1.817,0.222 c -5.733,0.696 -10.787,0.583 -14.88,-0.553 -3.605,-1.001 -6.468,-2.809 -8.38,-5.582 l -1.007,-1.461 -1.542,0.877 c -3.416,1.942 -6.841,3.488 -10.2,4.103 -3.208,0.591 -6.396,0.326 -9.517,-1.275 l -0.73,-0.375 -0.772,0.262 c -3.275,1.11 -6.407,2.517 -9.362,4.189 -2.997,1.692 -5.785,3.645 -8.332,5.816 -2.559,2.189 -4.9,4.617 -6.986,7.257 -2.086,2.64 -3.902,5.461 -5.416,8.431 -1.444,2.828 -2.634,5.829 -3.544,8.971 -0.888,3.069 -1.498,6.26 -1.808,9.544 -0.357,3.803 -0.396,7.782 0.167,11.702 0.574,3.994 1.772,7.936 3.886,11.588 l 0.471,0.817 0.938,0.131 c 2.289,0.318 4.93,1.661 7.744,3.852 3.008,2.341 6.161,5.621 9.264,9.643 l 1.187,1.538 1.534,-1.197 c 3.802,-2.967 7.553,-4.791 11.093,-5.202 3.183,-0.369 6.242,0.425 9.052,2.595 l 2.219,1.71 0.814,-2.681 c 3.119,-10.26 7.756,-13.638 10.627,-15.729 h 0.007 l 0.455,-0.331 z"
           style="fill:#ffffff;fill-opacity:1;fill-rule:evenodd;stroke:none"
           id="path53648" /><path
           d="m 123.078,298.52 0.711,-21.962 6.556,6.146 -6.145,-6.558 21.962,-0.711 -21.962,-0.712 6.145,-6.555 -6.556,6.144 -0.711,-21.962 -0.713,21.962 -6.555,-6.144 6.144,6.555 -21.961,0.712 21.961,0.711 -6.144,6.558 6.555,-6.146 z"
           style="fill:#ffffff;fill-opacity:1;fill-rule:evenodd;stroke:none"
           id="path53650" /><path
           d="m 221.736,244.519 0.711,-21.961 6.557,6.146 -6.145,-6.556 21.961,-0.713 -21.961,-0.712 6.145,-6.556 -6.557,6.146 -0.711,-21.96 -0.712,21.96 -6.556,-6.146 6.145,6.556 -21.961,0.712 21.961,0.713 -6.145,6.556 6.556,-6.146 z"
           style="fill:#ffffff;fill-opacity:1;fill-rule:evenodd;stroke:none"
           id="path53652" /><path
           d="m 430.415,308.531 1.231,-37.948 11.33,10.618 -10.619,-11.33 37.95,-1.23 -37.95,-1.23 10.619,-11.33 -11.33,10.618 -1.231,-37.947 -1.227,37.947 -11.33,-10.618 10.619,11.33 -37.952,1.23 37.952,1.23 -10.619,11.33 11.33,-10.618 z"
           style="fill:#ffffff;fill-opacity:1;fill-rule:evenodd;stroke:none"
           id="path53654" /><path
           d="m 244.798,462.685 1.23,-37.949 11.329,10.618 -10.618,-11.329 37.949,-1.23 -37.949,-1.229 10.618,-11.329 -11.329,10.618 -1.23,-37.949 -1.229,37.949 -11.33,-10.618 10.618,11.329 -37.948,1.229 37.948,1.23 -10.618,11.329 11.33,-10.618 z"
           style="fill:#ffffff;fill-opacity:1;fill-rule:evenodd;stroke:none"
           id="path53656" /><path
           d="m 414.908,472.843 0.682,-21.07 6.291,5.896 -5.898,-6.29 21.071,-0.683 -21.071,-0.682 5.898,-6.29 -6.291,5.895 -0.682,-21.069 -0.684,21.069 -6.289,-5.895 5.895,6.29 -21.07,0.682 21.07,0.683 -5.895,6.29 6.289,-5.896 z"
           style="fill:#ffffff;fill-opacity:1;fill-rule:evenodd;stroke:none"
           id="path53658" /><path
           d="m 390.568,150.734 0.682,-21.07 6.291,5.895 -5.896,-6.288 21.07,-0.685 -21.07,-0.682 5.896,-6.291 -6.291,5.898 -0.682,-21.071 -0.683,21.071 -6.289,-5.898 5.894,6.291 -21.069,0.682 21.069,0.685 -5.894,6.288 6.289,-5.895 z"
           style="fill:#ffffff;fill-opacity:1;fill-rule:evenodd;stroke:none"
           id="path53660" /><path
           d="m 527.324,340.423 0.712,-21.962 6.556,6.145 -6.145,-6.555 21.962,-0.713 -21.962,-0.711 6.145,-6.557 -6.556,6.146 -0.712,-21.961 -0.711,21.961 -6.558,-6.146 6.146,6.557 -21.961,0.711 21.961,0.713 -6.146,6.555 6.558,-6.145 z"
           style="fill:#ffffff;fill-opacity:1;fill-rule:evenodd;stroke:none"
           id="path53662" /></g></g></g></svg>
